{
    "asset" : {
        "generator" : "Khronos glTF Blender I/O v1.4.40",
        "version" : "2.0"
    },
    "scene" : 0,
    "scenes" : [
        {
            "name" : "Scene",
            "nodes" : [
                0
            ]
        }
    ],
    "nodes" : [
        {
            "mesh" : 0,
            "name" : "glasses"
        }
    ],
    "materials" : [
        {
            "doubleSided" : true,
            "name" : "glasses.001",
            "normalTexture" : {
                "index" : 0,
                "texCoord" : 0
            },
            "pbrMetallicRoughness" : {
                "baseColorTexture" : {
                    "index" : 1,
                    "texCoord" : 0
                },
                "metallicRoughnessTexture" : {
                    "index" : 2,
                    "texCoord" : 0
                }
            }
        }
    ],
    "meshes" : [
        {
            "name" : "Cube.006",
            "primitives" : [
                {
                    "attributes" : {
                        "POSITION" : 0,
                        "NORMAL" : 1,
                        "TEXCOORD_0" : 2
                    },
                    "indices" : 3,
                    "material" : 0
                }
            ]
        }
    ],
    "textures" : [
        {
            "sampler" : 0,
            "source" : 0
        },
        {
            "sampler" : 0,
            "source" : 1
        },
        {
            "sampler" : 0,
            "source" : 2
        }
    ],
    "images" : [
        {
            "bufferView" : 4,
            "mimeType" : "image/png",
            "name" : "glasses_low_glasses_Normal"
        },
        {
            "bufferView" : 5,
            "mimeType" : "image/png",
            "name" : "glasses_low_glasses_BaseColor"
        },
        {
            "bufferView" : 6,
            "mimeType" : "image/png",
            "name" : "glasses_low_glasses_Metallic-glasses_low_glasses_Roughness"
        }
    ],
    "accessors" : [
        {
            "bufferView" : 0,
            "componentType" : 5126,
            "count" : 1305,
            "max" : [
                0.24829500913619995,
                0.16532133519649506,
                0.23721909523010254
            ],
            "min" : [
                -0.24829457700252533,
                -0.0012358358362689614,
                -0.28204479813575745
            ],
            "type" : "VEC3"
        },
        {
            "bufferView" : 1,
            "componentType" : 5126,
            "count" : 1305,
            "type" : "VEC3"
        },
        {
            "bufferView" : 2,
            "componentType" : 5126,
            "count" : 1305,
            "type" : "VEC2"
        },
        {
            "bufferView" : 3,
            "componentType" : 5123,
            "count" : 4860,
            "type" : "SCALAR"
        }
    ],
    "bufferViews" : [
        {
            "buffer" : 0,
            "byteLength" : 15660,
            "byteOffset" : 0
        },
        {
            "buffer" : 0,
            "byteLength" : 15660,
            "byteOffset" : 15660
        },
        {
            "buffer" : 0,
            "byteLength" : 10440,
            "byteOffset" : 31320
        },
        {
            "buffer" : 0,
            "byteLength" : 9720,
            "byteOffset" : 41760
        },
        {
            "buffer" : 0,
            "byteLength" : 961047,
            "byteOffset" : 51480
        },
        {
            "buffer" : 0,
            "byteLength" : 12849,
            "byteOffset" : 1012528
        },
        {
            "buffer" : 0,
            "byteLength" : 60021,
            "byteOffset" : 1025380
        }
    ],
    "samplers" : [
        {
            "magFilter" : 9729,
            "minFilter" : 9986
        }
    ],
    "buffers" : [
        {
            "byteLength" : 1085404,
            "uri" : "data:application/octet-stream;base64,"
        }
    ]
}
