{
    "asset" : {
        "generator" : "Khronos glTF Blender I/O v1.4.40",
        "version" : "2.0"
    },
    "scene" : 0,
    "scenes" : [
        {
            "name" : "Scene",
            "nodes" : [
                0
            ]
        }
    ],
    "nodes" : [
        {
            "mesh" : 0,
            "name" : "heart glasses"
        }
    ],
    "materials" : [
        {
            "doubleSided" : true,
            "name" : "heart_glasses.002",
            "normalTexture" : {
                "index" : 0,
                "texCoord" : 0
            },
            "pbrMetallicRoughness" : {
                "baseColorTexture" : {
                    "index" : 1,
                    "texCoord" : 0
                },
                "metallicRoughnessTexture" : {
                    "index" : 2,
                    "texCoord" : 0
                }
            }
        }
    ],
    "meshes" : [
        {
            "name" : "Cube.004",
            "primitives" : [
                {
                    "attributes" : {
                        "POSITION" : 0,
                        "NORMAL" : 1,
                        "TEXCOORD_0" : 2
                    },
                    "indices" : 3,
                    "material" : 0
                }
            ]
        }
    ],
    "textures" : [
        {
            "sampler" : 0,
            "source" : 0
        },
        {
            "sampler" : 0,
            "source" : 1
        },
        {
            "sampler" : 0,
            "source" : 2
        }
    ],
    "images" : [
        {
            "bufferView" : 4,
            "mimeType" : "image/png",
            "name" : "heart_glasses_low_heart_glasses_Normal"
        },
        {
            "bufferView" : 5,
            "mimeType" : "image/png",
            "name" : "heart_glasses_low_heart_glasses_BaseColor"
        },
        {
            "bufferView" : 6,
            "mimeType" : "image/png",
            "name" : "heart_glasses_low_heart_glasses_Metallic-heart_glasses_low_heart_glasses_Roughness"
        }
    ],
    "accessors" : [
        {
            "bufferView" : 0,
            "componentType" : 5126,
            "count" : 1577,
            "max" : [
                0.2205435335636139,
                0.1759701818227768,
                0.2303091585636139
            ],
            "min" : [
                -0.2205439656972885,
                0.0011718401219695807,
                -0.2922555208206177
            ],
            "type" : "VEC3"
        },
        {
            "bufferView" : 1,
            "componentType" : 5126,
            "count" : 1577,
            "type" : "VEC3"
        },
        {
            "bufferView" : 2,
            "componentType" : 5126,
            "count" : 1577,
            "type" : "VEC2"
        },
        {
            "bufferView" : 3,
            "componentType" : 5123,
            "count" : 5502,
            "type" : "SCALAR"
        }
    ],
    "bufferViews" : [
        {
            "buffer" : 0,
            "byteLength" : 18924,
            "byteOffset" : 0
        },
        {
            "buffer" : 0,
            "byteLength" : 18924,
            "byteOffset" : 18924
        },
        {
            "buffer" : 0,
            "byteLength" : 12616,
            "byteOffset" : 37848
        },
        {
            "buffer" : 0,
            "byteLength" : 11004,
            "byteOffset" : 50464
        },
        {
            "buffer" : 0,
            "byteLength" : 940120,
            "byteOffset" : 61468
        },
        {
            "buffer" : 0,
            "byteLength" : 17874,
            "byteOffset" : 1001588
        },
        {
            "buffer" : 0,
            "byteLength" : 1407924,
            "byteOffset" : 1019464
        }
    ],
    "samplers" : [
        {
            "magFilter" : 9729,
            "minFilter" : 9986
        }
    ],
    "buffers" : [
        {
            "byteLength" : 2427388,
            "uri" : "data:application/octet-stream;base64,"
        }
    ]
}
